<svg width="43" height="43" viewBox="0 0 43 43" fill="none" xmlns="http://www.w3.org/2000/svg">
<g clip-path="url(#clip0_4_514)">
<path d="M12.5417 10.7505H41.2083C41.6835 10.7505 42.1392 10.5618 42.4752 10.2258C42.8112 9.88977 43 9.43406 43 8.95888C43 8.4837 42.8112 8.02798 42.4752 7.69198C42.1392 7.35598 41.6835 7.16721 41.2083 7.16721H12.5417C12.0665 7.16721 11.6108 7.35598 11.2748 7.69198C10.9388 8.02798 10.75 8.4837 10.75 8.95888C10.75 9.43406 10.9388 9.88977 11.2748 10.2258C11.6108 10.5618 12.0665 10.7505 12.5417 10.7505Z" fill="white"/>
<path d="M41.2083 19.7078H12.5417C12.0665 19.7078 11.6108 19.8966 11.2748 20.2326C10.9388 20.5686 10.75 21.0243 10.75 21.4995C10.75 21.9746 10.9388 22.4304 11.2748 22.7664C11.6108 23.1024 12.0665 23.2911 12.5417 23.2911H41.2083C41.6835 23.2911 42.1392 23.1024 42.4752 22.7664C42.8112 22.4304 43 21.9746 43 21.4995C43 21.0243 42.8112 20.5686 42.4752 20.2326C42.1392 19.8966 41.6835 19.7078 41.2083 19.7078Z" fill="white"/>
<path d="M41.2083 32.25H12.5417C12.0665 32.25 11.6108 32.4388 11.2748 32.7748C10.9388 33.1108 10.75 33.5665 10.75 34.0417C10.75 34.5169 10.9388 34.9726 11.2748 35.3086C11.6108 35.6446 12.0665 35.8334 12.5417 35.8334H41.2083C41.6835 35.8334 42.1392 35.6446 42.4752 35.3086C42.8112 34.9726 43 34.5169 43 34.0417C43 33.5665 42.8112 33.1108 42.4752 32.7748C42.1392 32.4388 41.6835 32.25 41.2083 32.25Z" fill="white"/>
<path d="M3.58333 12.5416C5.56235 12.5416 7.16667 10.9373 7.16667 8.95831C7.16667 6.9793 5.56235 5.37499 3.58333 5.37499C1.60431 5.37499 0 6.9793 0 8.95831C0 10.9373 1.60431 12.5416 3.58333 12.5416Z" fill="white"/>
<path d="M3.58333 25.0839C5.56235 25.0839 7.16667 23.4796 7.16667 21.5005C7.16667 19.5215 5.56235 17.9172 3.58333 17.9172C1.60431 17.9172 0 19.5215 0 21.5005C0 23.4796 1.60431 25.0839 3.58333 25.0839Z" fill="white"/>
<path d="M3.58333 37.6244C5.56235 37.6244 7.16667 36.0201 7.16667 34.0411C7.16667 32.0621 5.56235 30.4578 3.58333 30.4578C1.60431 30.4578 0 32.0621 0 34.0411C0 36.0201 1.60431 37.6244 3.58333 37.6244Z" fill="white"/>
</g>
<defs>
<clipPath id="clip0_4_514">
<rect width="43" height="43" fill="white"/>
</clipPath>
</defs>
</svg>
