<svg width="32" height="32" viewBox="0 0 32 32" fill="none" xmlns="http://www.w3.org/2000/svg">
<g clip-path="url(#clip0_4_551)">
<path d="M31.6094 7.05786L24.9427 0.391189C24.6913 0.148312 24.3545 0.0139192 24.0049 0.0169571C23.6553 0.019995 23.3209 0.16022 23.0736 0.407431C22.8264 0.654642 22.6862 0.989059 22.6832 1.33865C22.6801 1.68825 22.8145 2.02505 23.0574 2.27652L25.4481 4.66719L23.4667 6.64452C22.1862 5.70428 20.612 5.25223 19.0277 5.36981C17.4434 5.48739 15.9531 6.16688 14.8254 7.28586L6.7334 15.3819C5.86417 16.2464 5.17503 17.2748 4.70585 18.4074C4.23668 19.5401 3.99679 20.7545 4.00006 21.9805V26.1139L0.390731 29.7245C0.263384 29.8475 0.161808 29.9946 0.0919289 30.1573C0.0220502 30.32 -0.0147315 30.4949 -0.0162699 30.672C-0.0178083 30.849 0.0159273 31.0246 0.0829685 31.1885C0.15001 31.3523 0.249014 31.5012 0.374204 31.6264C0.499394 31.7516 0.648264 31.8506 0.812125 31.9176C0.975987 31.9847 1.15156 32.0184 1.3286 32.0169C1.50564 32.0153 1.6806 31.9785 1.84327 31.9087C2.00594 31.8388 2.15307 31.7372 2.27606 31.6099L5.8854 28.0005H10.0187C11.2447 28.0038 12.4592 27.7639 13.5918 27.2947C14.7245 26.8256 15.7528 26.1364 16.6174 25.2672L24.7134 17.1712C25.8333 16.0449 26.5135 14.5553 26.6314 12.9713C26.7492 11.3874 26.2969 9.81352 25.3561 8.53386L27.3334 6.55252L29.7241 8.94319C29.9755 9.18607 30.3123 9.32046 30.6619 9.31742C31.0115 9.31438 31.3459 9.17416 31.5932 8.92695C31.8404 8.67974 31.9806 8.34532 31.9836 7.99572C31.9867 7.64613 31.8523 7.30933 31.6094 7.05786ZM22.8294 15.2859L14.7334 23.3819C14.1158 24.0027 13.3813 24.4949 12.5722 24.8299C11.7632 25.165 10.8957 25.3363 10.0201 25.3339H6.66673V21.9805C6.66714 21.5437 6.70956 21.1079 6.7934 20.6792L8.3934 22.2792C8.51639 22.4065 8.66352 22.5081 8.82619 22.578C8.98886 22.6479 9.16382 22.6847 9.34086 22.6862C9.5179 22.6877 9.69347 22.654 9.85734 22.587C10.0212 22.5199 10.1701 22.4209 10.2953 22.2957C10.4204 22.1705 10.5195 22.0217 10.5865 21.8578C10.6535 21.6939 10.6873 21.5184 10.6857 21.3413C10.6842 21.1643 10.6474 20.9893 10.5775 20.8267C10.5077 20.664 10.4061 20.5169 10.2787 20.3939L7.9574 18.0725C8.15837 17.7888 8.38128 17.5214 8.62406 17.2725L10.0001 15.8859L12.3907 18.2765C12.6422 18.5194 12.979 18.6538 13.3286 18.6508C13.6782 18.6477 14.0126 18.5075 14.2598 18.2603C14.507 18.0131 14.6473 17.6787 14.6503 17.3291C14.6533 16.9795 14.5189 16.6427 14.2761 16.3912L11.8854 14.0005L14.0001 11.8859L16.3907 14.2765C16.6422 14.5194 16.979 14.6538 17.3286 14.6508C17.6782 14.6477 18.0126 14.5075 18.2598 14.2603C18.507 14.0131 18.6473 13.6787 18.6503 13.3291C18.6533 12.9795 18.5189 12.6427 18.2761 12.3912L15.8854 10.0005L16.7147 9.17119C17.4768 8.44428 18.4896 8.03874 19.5427 8.03874C20.5959 8.03874 21.6086 8.44428 22.3707 9.17119L22.8294 9.62986C23.5793 10.38 24.0005 11.3972 24.0005 12.4579C24.0005 13.5185 23.5793 14.5357 22.8294 15.2859Z" fill="white"/>
</g>
<defs>
<clipPath id="clip0_4_551">
<rect width="32" height="32" fill="white"/>
</clipPath>
</defs>
</svg>
