<svg width="32" height="32" viewBox="0 0 32 32" fill="none" xmlns="http://www.w3.org/2000/svg">
<g clip-path="url(#clip0_6_568)">
<path d="M13.8092 3.89359L11.9212 6.96026C11.7268 7.24055 11.4323 7.43564 11.0983 7.50539C10.7644 7.57513 10.4164 7.51423 10.126 7.33521C9.83563 7.15619 9.6249 6.87267 9.5372 6.543C9.4495 6.21333 9.4915 5.86257 9.65455 5.56292L11.5425 2.49626C12.016 1.74027 12.6738 1.117 13.4541 0.684941C14.2345 0.252883 15.1119 0.0262146 16.0039 0.0262146C16.8959 0.0262146 17.7732 0.252883 18.5536 0.684941C19.334 1.117 19.9918 1.74027 20.4652 2.49626L26.0652 11.6083L26.6532 8.45492C26.7179 8.10714 26.9181 7.7993 27.2098 7.59914C27.5015 7.39897 27.8608 7.32288 28.2085 7.38759C28.5563 7.4523 28.8642 7.65252 29.0643 7.94421C29.2645 8.23589 29.3406 8.59514 29.2759 8.94292L28.6092 12.5029C28.4386 13.4194 27.9533 14.2475 27.2371 14.8442C26.5209 15.4408 25.6187 15.7686 24.6866 15.7709C24.4265 15.7709 20.3972 15.0029 20.3972 15.0029C20.0561 14.9288 19.7577 14.7239 19.566 14.4321C19.3744 14.1404 19.3047 13.7851 19.3721 13.4426C19.4395 13.1001 19.6385 12.7977 19.9264 12.6003C20.2143 12.4029 20.5681 12.3263 20.9119 12.3869L23.7559 12.9483L18.1905 3.89359C17.9592 3.52096 17.6365 3.21352 17.2532 3.00033C16.8699 2.78714 16.4385 2.67525 15.9999 2.67525C15.5613 2.67525 15.1299 2.78714 14.7466 3.00033C14.3632 3.21352 14.0406 3.52096 13.8092 3.89359ZM31.2119 19.9723L29.9212 17.8763C29.8346 17.7171 29.7165 17.5773 29.5741 17.4653C29.4317 17.3534 29.2679 17.2716 29.0928 17.225C28.9178 17.1785 28.735 17.1681 28.5558 17.1944C28.3766 17.2208 28.2046 17.2835 28.0504 17.3786C27.8961 17.4736 27.7629 17.5991 27.6588 17.7474C27.5547 17.8957 27.4819 18.0636 27.4449 18.2409C27.4078 18.4183 27.4073 18.6013 27.4434 18.7789C27.4794 18.9564 27.5513 19.1247 27.6545 19.2736L28.9452 21.3696C29.1914 21.7639 29.3265 22.2173 29.3361 22.6821C29.3457 23.1468 29.2296 23.6055 28.9999 24.0096C28.779 24.4126 28.4532 24.7484 28.0569 24.9812C27.6607 25.2141 27.2088 25.3354 26.7492 25.3323H16.9012L18.5959 23.6403C18.8391 23.3891 18.974 23.0525 18.9715 22.7029C18.969 22.3533 18.8292 22.0187 18.5823 21.7711C18.3355 21.5235 18.0012 21.3828 17.6516 21.3793C17.302 21.3758 16.965 21.5097 16.7132 21.7523L14.4572 23.9989C13.7531 24.699 13.3499 25.6462 13.3332 26.6389C13.3332 26.6389 13.3332 26.6523 13.3332 26.6576C13.3332 26.6629 13.3332 26.6749 13.3332 26.6843C13.3294 27.1973 13.4283 27.7059 13.6241 28.1802C13.8199 28.6544 14.1086 29.0847 14.4732 29.4456L16.7159 31.6483C16.8395 31.7771 16.9876 31.8798 17.1516 31.9502C17.3156 32.0207 17.4921 32.0575 17.6706 32.0585C17.8491 32.0595 18.026 32.0247 18.1907 31.956C18.3555 31.8874 18.5048 31.7864 18.6298 31.659C18.7548 31.5316 18.853 31.3803 18.9184 31.2143C18.9839 31.0482 19.0154 30.8707 19.011 30.6923C19.0066 30.5138 18.9664 30.3381 18.8928 30.1755C18.8192 30.0129 18.7137 29.8667 18.5826 29.7456L16.8119 27.9989H26.7492C27.6846 27.9957 28.6023 27.7433 29.4077 27.2677C30.2132 26.7921 30.8773 26.1104 31.3319 25.2929C31.7864 24.4753 32.0149 23.5515 31.9938 22.6163C31.9727 21.6811 31.7028 20.7685 31.2119 19.9723ZM9.03988 9.61626C8.60292 9.31869 8.11103 9.11119 7.59295 9.00588C7.07488 8.90057 6.54102 8.89956 6.02255 9.00292L2.51722 9.69359C2.3426 9.72438 2.17587 9.78968 2.0268 9.88568C1.87773 9.98169 1.7493 10.1065 1.64903 10.2527C1.54877 10.3989 1.47867 10.5637 1.44286 10.7374C1.40705 10.911 1.40623 11.0901 1.44046 11.2641C1.47469 11.438 1.54327 11.6034 1.6422 11.7506C1.74113 11.8977 1.86841 12.0237 2.0166 12.121C2.1648 12.2184 2.33092 12.2852 2.50525 12.3176C2.67958 12.35 2.85862 12.3472 3.03188 12.3096L5.84255 11.7563L0.787883 19.9723C0.297018 20.7684 0.0271288 21.6809 0.00598437 22.616C-0.0151601 23.551 0.213204 24.4748 0.66758 25.2923C1.12196 26.1098 1.78594 26.7915 2.5912 27.2672C3.39647 27.7429 4.31394 27.9955 5.24922 27.9989H9.43988C9.79351 27.9989 10.1326 27.8585 10.3827 27.6084C10.6327 27.3584 10.7732 27.0192 10.7732 26.6656C10.7732 26.312 10.6327 25.9728 10.3827 25.7228C10.1326 25.4727 9.79351 25.3323 9.43988 25.3323H5.24922C4.79053 25.3344 4.33977 25.2127 3.94456 24.9799C3.54934 24.7471 3.22434 24.4118 3.00388 24.0096C2.77421 23.6055 2.65804 23.1468 2.66766 22.6821C2.67728 22.2173 2.81234 21.7639 3.05855 21.3696L8.17588 13.0523L8.77055 16.2443C8.83562 16.592 9.03618 16.8997 9.32811 17.0997C9.62004 17.2996 9.97943 17.3753 10.3272 17.3103C10.675 17.2452 10.9827 17.0446 11.1826 16.7527C11.3825 16.4608 11.4583 16.1014 11.3932 15.7536L10.7266 12.1936C10.6307 11.6735 10.4323 11.1777 10.1427 10.7351C9.85305 10.2926 9.47816 9.91225 9.03988 9.61626Z" fill="white"/>
</g>
<defs>
<clipPath id="clip0_6_568">
<rect width="32" height="32" fill="white"/>
</clipPath>
</defs>
</svg>
