<svg width="43" height="43" viewBox="0 0 43 43" fill="none" xmlns="http://www.w3.org/2000/svg">
<g clip-path="url(#clip0_4_443)">
<path d="M40.75 39.25H9.25C7.85761 39.25 6.52226 38.6969 5.53769 37.7123C4.55312 36.7277 4 35.3924 4 34V2.5C4 2.03587 3.81563 1.59075 3.48744 1.26256C3.15925 0.934374 2.71413 0.75 2.25 0.75C1.78587 0.75 1.34075 0.934374 1.01256 1.26256C0.684374 1.59075 0.5 2.03587 0.5 2.5L0.5 34C0.502779 36.3198 1.42554 38.5438 3.06588 40.1841C4.70623 41.8245 6.93021 42.7472 9.25 42.75H40.75C41.2141 42.75 41.6592 42.5656 41.9874 42.2374C42.3156 41.9092 42.5 41.4641 42.5 41C42.5 40.5359 42.3156 40.0908 41.9874 39.7626C41.6592 39.4344 41.2141 39.25 40.75 39.25Z" fill="white"/>
<path d="M11.0002 35.7499C11.4644 35.7499 11.9095 35.5655 12.2377 35.2373C12.5659 34.9091 12.7502 34.464 12.7502 33.9999V21.7499C12.7502 21.2857 12.5659 20.8406 12.2377 20.5124C11.9095 20.1843 11.4644 19.9999 11.0002 19.9999C10.5361 19.9999 10.091 20.1843 9.76281 20.5124C9.43462 20.8406 9.25024 21.2857 9.25024 21.7499V33.9999C9.25024 34.464 9.43462 34.9091 9.76281 35.2373C10.091 35.5655 10.5361 35.7499 11.0002 35.7499Z" fill="white"/>
<path d="M17.9997 18.25V34C17.9997 34.4641 18.1841 34.9092 18.5123 35.2374C18.8405 35.5656 19.2856 35.75 19.7497 35.75C20.2138 35.75 20.659 35.5656 20.9871 35.2374C21.3153 34.9092 21.4997 34.4641 21.4997 34V18.25C21.4997 17.7859 21.3153 17.3408 20.9871 17.0126C20.659 16.6844 20.2138 16.5 19.7497 16.5C19.2856 16.5 18.8405 16.6844 18.5123 17.0126C18.1841 17.3408 17.9997 17.7859 17.9997 18.25Z" fill="white"/>
<path d="M26.75 23.5V34C26.75 34.4641 26.9344 34.9092 27.2626 35.2374C27.5908 35.5656 28.0359 35.75 28.5 35.75C28.9641 35.75 29.4093 35.5656 29.7375 35.2374C30.0656 34.9092 30.25 34.4641 30.25 34V23.5C30.25 23.0359 30.0656 22.5908 29.7375 22.2626C29.4093 21.9344 28.9641 21.75 28.5 21.75C28.0359 21.75 27.5908 21.9344 27.2626 22.2626C26.9344 22.5908 26.75 23.0359 26.75 23.5Z" fill="white"/>
<path d="M35.5003 16.4998V33.9998C35.5003 34.464 35.6847 34.9091 36.0129 35.2373C36.3411 35.5655 36.7862 35.7498 37.2503 35.7498C37.7144 35.7498 38.1596 35.5655 38.4878 35.2373C38.816 34.9091 39.0003 34.464 39.0003 33.9998V16.4998C39.0003 16.0357 38.816 15.5906 38.4878 15.2624C38.1596 14.9342 37.7144 14.7498 37.2503 14.7498C36.7862 14.7498 36.3411 14.9342 36.0129 15.2624C35.6847 15.5906 35.5003 16.0357 35.5003 16.4998Z" fill="white"/>
<path d="M10.9997 16.4999C11.4638 16.4998 11.9088 16.3153 12.2369 15.9871L18.5124 9.71164C18.846 9.39388 19.289 9.21664 19.7497 9.21664C20.2104 9.21664 20.6534 9.39388 20.9869 9.71164L24.7879 13.5126C25.7725 14.4969 27.1076 15.0498 28.4997 15.0498C29.8918 15.0498 31.2269 14.4969 32.2114 13.5126L41.9869 3.73714C42.3057 3.40708 42.4821 2.96503 42.4781 2.50619C42.4741 2.04734 42.2901 1.60842 41.9656 1.28396C41.6412 0.959492 41.2022 0.775446 40.7434 0.771459C40.2845 0.767472 39.8425 0.943862 39.5124 1.26264L29.7369 11.0364C29.4088 11.3645 28.9637 11.5488 28.4997 11.5488C28.0357 11.5488 27.5906 11.3645 27.2624 11.0364L23.4614 7.23714C22.4769 6.25292 21.1418 5.70001 19.7497 5.70001C18.3576 5.70001 17.0225 6.25292 16.0379 7.23714L9.76244 13.5126C9.51777 13.7574 9.35116 14.0692 9.28367 14.4086C9.21617 14.748 9.25083 15.0998 9.38325 15.4195C9.51567 15.7393 9.73992 16.0125 10.0276 16.2048C10.3154 16.3971 10.6536 16.4998 10.9997 16.4999Z" fill="white"/>
</g>
<defs>
<clipPath id="clip0_4_443">
<rect width="42" height="42" fill="white" transform="translate(0.5 0.75)"/>
</clipPath>
</defs>
</svg>
