<svg width="43" height="43" viewBox="0 0 43 43" fill="none" xmlns="http://www.w3.org/2000/svg">
<g clip-path="url(#clip0_4_492)">
<path d="M39.35 4.03521C38.3662 3.21258 37.2134 2.61664 35.9733 2.2897C34.7333 1.96275 33.4365 1.91283 32.175 2.14346L25.4865 3.35796C23.9423 3.64153 22.5383 4.43601 21.5 5.61371C20.459 4.43397 19.051 3.63932 17.503 3.35796L10.825 2.14346C9.56353 1.91262 8.26673 1.9619 7.02641 2.28779C5.78609 2.61369 4.63256 3.20824 3.64749 4.02935C2.66242 4.85047 1.86988 5.87808 1.32597 7.03945C0.782062 8.20081 0.500085 9.46754 0.5 10.75L0.5 29.6377C0.500101 31.6866 1.21921 33.6705 2.53198 35.2436C3.84476 36.8167 5.66794 37.8792 7.68375 38.246L18.6843 40.2462C20.5462 40.5845 22.4538 40.5845 24.3158 40.2462L35.325 38.246C37.3392 37.8774 39.1603 36.8141 40.4714 35.2412C41.7824 33.6682 42.5003 31.6854 42.5 29.6377V10.75C42.5008 9.46799 42.2189 8.20161 41.6745 7.041C41.13 5.88039 40.3363 4.8541 39.35 4.03521V4.03521ZM19.75 36.874C19.603 36.853 19.456 36.8285 19.309 36.8022L8.31025 34.8037C7.10059 34.5836 6.00654 33.946 5.21885 33.0019C4.43117 32.0578 3.99981 30.8672 4 29.6377V10.75C4 9.35757 4.55312 8.02221 5.53769 7.03765C6.52226 6.05308 7.85761 5.49996 9.25 5.49996C9.56691 5.50072 9.88313 5.52941 10.195 5.58571L16.88 6.81071C17.6843 6.95789 18.4117 7.38203 18.936 8.00954C19.4602 8.63704 19.7482 9.42828 19.75 10.246V36.874ZM39 29.6377C39.0002 30.8672 38.5688 32.0578 37.7811 33.0019C36.9935 33.946 35.8994 34.5836 34.6898 34.8037L23.691 36.8022C23.544 36.8285 23.397 36.853 23.25 36.874V10.246C23.2499 9.42628 23.5374 8.63256 24.0626 8.00317C24.5877 7.37379 25.3171 6.94868 26.1235 6.80196L32.8103 5.57696C33.5675 5.43918 34.3458 5.4696 35.09 5.66605C35.8342 5.8625 36.5261 6.22019 37.1167 6.71377C37.7073 7.20735 38.1821 7.82475 38.5076 8.52225C38.833 9.21974 39.0011 9.98027 39 10.75V29.6377Z" fill="white"/>
</g>
<defs>
<clipPath id="clip0_4_492">
<rect width="42" height="42" fill="white" transform="translate(0.5 0.25)"/>
</clipPath>
</defs>
</svg>
