<svg width="42" height="42" viewBox="0 0 42 42" fill="none" xmlns="http://www.w3.org/2000/svg">
<g clip-path="url(#clip0_4_506)">
<path d="M1.75 8.31301H6.538C6.91361 9.69504 7.73355 10.9151 8.87132 11.7849C10.0091 12.6547 11.4015 13.126 12.8336 13.126C14.2658 13.126 15.6582 12.6547 16.7959 11.7849C17.9337 10.9151 18.7536 9.69504 19.1292 8.31301H40.25C40.7141 8.31301 41.1592 8.12864 41.4874 7.80045C41.8156 7.47226 42 7.02714 42 6.56301C42 6.09889 41.8156 5.65377 41.4874 5.32558C41.1592 4.99739 40.7141 4.81301 40.25 4.81301H19.1292C18.7536 3.43098 17.9337 2.21095 16.7959 1.34113C15.6582 0.471321 14.2658 6.10352e-05 12.8336 6.10352e-05C11.4015 6.10352e-05 10.0091 0.471321 8.87132 1.34113C7.73355 2.21095 6.91361 3.43098 6.538 4.81301H1.75C1.28587 4.81301 0.840752 4.99739 0.512563 5.32558C0.184374 5.65377 0 6.09889 0 6.56301C0 7.02714 0.184374 7.47226 0.512563 7.80045C0.840752 8.12864 1.28587 8.31301 1.75 8.31301ZM12.8328 3.50051C13.4385 3.50051 14.0306 3.68013 14.5342 4.01664C15.0378 4.35315 15.4303 4.83145 15.6621 5.39105C15.8939 5.95064 15.9546 6.56641 15.8364 7.16048C15.7182 7.75455 15.4266 8.30023 14.9983 8.72853C14.57 9.15683 14.0243 9.4485 13.4302 9.56667C12.8361 9.68484 12.2204 9.62419 11.6608 9.3924C11.1012 9.1606 10.6229 8.76807 10.2864 8.26445C9.94986 7.76082 9.77025 7.16872 9.77025 6.56301C9.77118 5.75107 10.0941 4.97265 10.6683 4.39852C11.2424 3.82439 12.0208 3.50144 12.8328 3.50051Z" fill="white"/>
<path d="M40.25 19.2484H35.462C35.087 17.8661 34.2674 16.6456 33.1297 15.7754C31.992 14.9053 30.5996 14.4338 29.1672 14.4338C27.7349 14.4338 26.3425 14.9053 25.2048 15.7754C24.0671 16.6456 23.2475 17.8661 22.8725 19.2484H1.75C1.28587 19.2484 0.840752 19.4328 0.512563 19.761C0.184374 20.0892 0 20.5343 0 20.9984C0 21.4626 0.184374 21.9077 0.512563 22.2359C0.840752 22.564 1.28587 22.7484 1.75 22.7484H22.8725C23.2475 24.1308 24.0671 25.3512 25.2048 26.2214C26.3425 27.0916 27.7349 27.5631 29.1672 27.5631C30.5996 27.5631 31.992 27.0916 33.1297 26.2214C34.2674 25.3512 35.087 24.1308 35.462 22.7484H40.25C40.7141 22.7484 41.1592 22.564 41.4874 22.2359C41.8156 21.9077 42 21.4626 42 20.9984C42 20.5343 41.8156 20.0892 41.4874 19.761C41.1592 19.4328 40.7141 19.2484 40.25 19.2484ZM29.1672 24.0609C28.5615 24.0609 27.9694 23.8813 27.4658 23.5448C26.9622 23.2083 26.5697 22.73 26.3379 22.1704C26.1061 21.6108 26.0454 20.995 26.1636 20.401C26.2818 19.8069 26.5734 19.2612 27.0017 18.8329C27.43 18.4046 27.9757 18.1129 28.5698 17.9948C29.1639 17.8766 29.7796 17.9373 30.3392 18.169C30.8988 18.4008 31.3771 18.7934 31.7136 19.297C32.0501 19.8006 32.2297 20.3927 32.2298 20.9984C32.2288 21.8104 31.9059 22.5888 31.3317 23.1629C30.7576 23.737 29.9792 24.06 29.1672 24.0609Z" fill="white"/>
<path d="M40.25 33.6881H19.1292C18.7536 32.306 17.9337 31.086 16.7959 30.2162C15.6582 29.3464 14.2658 28.8751 12.8336 28.8751C11.4015 28.8751 10.0091 29.3464 8.87132 30.2162C7.73355 31.086 6.91361 32.306 6.538 33.6881H1.75C1.28587 33.6881 0.840752 33.8724 0.512563 34.2006C0.184374 34.5288 0 34.9739 0 35.4381C0 35.9022 0.184374 36.3473 0.512563 36.6755C0.840752 37.0037 1.28587 37.188 1.75 37.188H6.538C6.91361 38.5701 7.73355 39.7901 8.87132 40.6599C10.0091 41.5297 11.4015 42.001 12.8336 42.001C14.2658 42.001 15.6582 41.5297 16.7959 40.6599C17.9337 39.7901 18.7536 38.5701 19.1292 37.188H40.25C40.7141 37.188 41.1592 37.0037 41.4874 36.6755C41.8156 36.3473 42 35.9022 42 35.4381C42 34.9739 41.8156 34.5288 41.4874 34.2006C41.1592 33.8724 40.7141 33.6881 40.25 33.6881ZM12.8328 38.5005C12.227 38.5005 11.6349 38.3209 11.1313 37.9844C10.6277 37.6479 10.2352 37.1696 10.0034 36.61C9.77158 36.0504 9.71093 35.4347 9.82909 34.8406C9.94726 34.2465 10.2389 33.7008 10.6672 33.2725C11.0955 32.8442 11.6412 32.5526 12.2353 32.4344C12.8294 32.3162 13.4451 32.3769 14.0047 32.6087C14.5643 32.8405 15.0426 33.233 15.3791 33.7366C15.7156 34.2402 15.8953 34.8323 15.8953 35.4381C15.8939 36.2498 15.5708 37.028 14.9967 37.602C14.4227 38.1761 13.6445 38.4992 12.8328 38.5005Z" fill="white"/>
</g>
<defs>
<clipPath id="clip0_4_506">
<rect width="42" height="42" fill="white"/>
</clipPath>
</defs>
</svg>
