<svg width="43" height="42" viewBox="0 0 43 42" fill="none" xmlns="http://www.w3.org/2000/svg">
<g clip-path="url(#clip0_4_391)">
<path d="M40.9621 15.8706L27.6884 2.59511C26.0456 0.957089 23.8203 0.037262 21.5004 0.037262C19.1805 0.037262 16.9552 0.957089 15.3124 2.59511L2.03864 15.8706C1.54938 16.3567 1.16148 16.9351 0.897432 17.5723C0.633379 18.2094 0.498423 18.8927 0.500387 19.5824V36.7621C0.500387 38.1545 1.05351 39.4899 2.03808 40.4744C3.02264 41.459 4.358 42.0121 5.75039 42.0121H37.2504C38.6428 42.0121 39.9781 41.459 40.9627 40.4744C41.9473 39.4899 42.5004 38.1545 42.5004 36.7621V19.5824C42.5024 18.8927 42.3674 18.2094 42.1033 17.5723C41.8393 16.9351 41.4514 16.3567 40.9621 15.8706ZM26.7504 38.5121H16.2504V31.6276C16.2504 30.2352 16.8035 28.8999 17.7881 27.9153C18.7726 26.9307 20.108 26.3776 21.5004 26.3776C22.8928 26.3776 24.2281 26.9307 25.2127 27.9153C26.1973 28.8999 26.7504 30.2352 26.7504 31.6276V38.5121ZM39.0004 36.7621C39.0004 37.2262 38.816 37.6714 38.4878 37.9995C38.1596 38.3277 37.7145 38.5121 37.2504 38.5121H30.2504V31.6276C30.2504 29.307 29.3285 27.0814 27.6876 25.4404C26.0466 23.7995 23.821 22.8776 21.5004 22.8776C19.1797 22.8776 16.9541 23.7995 15.3132 25.4404C13.6723 27.0814 12.7504 29.307 12.7504 31.6276V38.5121H5.75039C5.28626 38.5121 4.84114 38.3277 4.51295 37.9995C4.18476 37.6714 4.00039 37.2262 4.00039 36.7621V19.5824C4.00201 19.1186 4.18622 18.6741 4.51314 18.3451L17.7869 5.07486C18.7734 4.09298 20.1086 3.54176 21.5004 3.54176C22.8922 3.54176 24.2274 4.09298 25.2139 5.07486L38.4876 18.3504C38.8133 18.678 38.9974 19.1204 39.0004 19.5824V36.7621Z" fill="white"/>
</g>
<defs>
<clipPath id="clip0_4_391">
<rect width="42" height="42" fill="white" transform="translate(0.5)"/>
</clipPath>
</defs>
</svg>
