<svg xmlns="http://www.w3.org/2000/svg" width="464" height="345" fill="none" viewBox="0 0 464 345">
  <path fill="#FF0000" d="M273.879 115.07c16.555 8.683 29.58 22.295 37.031 38.7 7.451 16.405 8.908 34.675 4.141 51.944-4.767 17.269-15.488 32.559-30.48 43.472-14.993 10.913-33.408 16.83-52.358 16.824-18.95-.005-37.362-5.934-52.347-16.856s-25.695-26.219-30.45-43.491c-4.755-17.271-3.285-35.541 4.177-51.941 7.463-16.401 20.497-30.005 37.058-38.678l8.734 14.785c-13.083 6.852-23.38 17.599-29.276 30.555-5.895 12.957-7.056 27.39-3.3 41.034 3.757 13.645 12.218 25.729 24.056 34.358 11.838 8.628 26.383 13.312 41.354 13.316 14.97.005 29.519-4.67 41.363-13.291 11.844-8.621 20.313-20.7 24.079-34.343 3.766-13.642 2.615-28.075-3.272-41.036-5.886-12.96-16.176-23.713-29.254-30.573l8.744-14.779Z"/>
  <path stroke="#FF0000" stroke-linecap="square" stroke-width="14" d="M232.597 104.971v74.49"/>
  <path stroke="#FF0000" stroke-width="15" d="M120.997 259.027c-55.668 7.764-80.408-32.609-80.408-61.595-1.022-16.412 6.357-51.117 43.797-59.808.559-.13.923-.678.777-1.233-9.64-36.687-6.09-115.575 87.376-127.885 22.164-2.919 66.491 6.315 85.047 39.856 3.987 7.208 67.865-28.6 75.648 53.024.062.649.737 1.111 1.358.914 72.892-23.074 155.113 142.316 3.917 156.727"/>
  <mask id="a" width="438" height="53" x="13.5" y="290" fill="#000" maskUnits="userSpaceOnUse">
    <path fill="#fff" d="M13.5 290h438v53h-438z"/>
    <path d="M16.791 339v-5.127l4.541-.879v-30.615l-4.541-.879v-5.156h17.666v5.156l-4.57.879v12.305h17.402v-12.305l-4.57-.879v-5.156h17.666v5.156l-4.57.879v30.615l4.57.879V339H42.719v-5.127l4.57-.879v-11.719H29.887v11.719l4.57.879V339H16.791Zm61.886.615c-3.145 0-5.645-.84-7.5-2.519-1.856-1.7-2.784-4.004-2.784-6.914 0-1.993.537-3.741 1.612-5.244 1.093-1.504 2.695-2.686 4.804-3.545 2.13-.86 4.746-1.289 7.852-1.289h4.19v-2.344c0-1.524-.45-2.754-1.348-3.692-.88-.957-2.207-1.435-3.985-1.435-.918 0-1.738.117-2.46.351a7.184 7.184 0 0 0-1.993.938l-.674 4.189H70.24l-.117-8.232a26.598 26.598 0 0 1 5.39-2.285c1.934-.586 4.092-.879 6.475-.879 4.14 0 7.412.967 9.815 2.9 2.402 1.914 3.603 4.658 3.603 8.233v14.355c.02.41.059.811.117 1.201l3.31.469V339H88.228a43.648 43.648 0 0 1-.644-1.758 10.97 10.97 0 0 1-.469-1.875 12.162 12.162 0 0 1-3.604 3.106c-1.367.761-2.978 1.142-4.833 1.142Zm2.285-6.328a7.62 7.62 0 0 0 3.398-.791c1.074-.547 1.904-1.26 2.49-2.139v-5.009h-4.218c-1.875 0-3.301.429-4.278 1.289-.957.859-1.435 1.894-1.435 3.105 0 1.133.351 2.012 1.054 2.637.723.605 1.72.908 2.989.908Zm40.03 6.328c-3.047 0-5.684-.683-7.91-2.051-2.207-1.367-3.907-3.252-5.098-5.654-1.191-2.422-1.787-5.185-1.787-8.291v-.879c0-3.125.605-5.888 1.816-8.291 1.211-2.402 2.92-4.287 5.127-5.654 2.207-1.387 4.805-2.08 7.793-2.08 2.852 0 5.303.449 7.354 1.347 2.07.879 3.75 1.905 5.039 3.077l-.059 9.082h-6.445l-1.143-5.655c-.468-.468-1.064-.849-1.787-1.142a5.8 5.8 0 0 0-2.197-.44c-1.563 0-2.861.391-3.897 1.172-1.015.782-1.777 1.895-2.285 3.34-.508 1.445-.761 3.193-.761 5.244v.879c0 2.168.283 3.955.849 5.361.567 1.387 1.319 2.413 2.256 3.077a5.476 5.476 0 0 0 3.193.996c1.504 0 2.705-.391 3.604-1.172.918-.801 1.543-1.924 1.875-3.369h7.324l.088.176c-.332 2.246-.996 4.189-1.992 5.83-.977 1.64-2.363 2.9-4.16 3.779-1.778.879-4.043 1.318-6.797 1.318ZM141.51 339v-5.127l4.131-.879v-33.662l-4.57-.879v-5.156h13.095v39.697l3.692.879V339H141.51Zm20.186 0v-4.863l2.402-.557-.059-.117-6.269-8.525 5.449-5.596 10.401 13.623 3.925.908V339h-15.849Zm-8.438-8.672-4.101-4.775 13.769-12.598.059-.088-3.252-.469v-5.097h16.494v5.156l-4.102 1.025-18.867 16.846ZM194.343 339v-5.127l4.57-.879v-30.058h-7.763l-.469 5.097h-6.475v-11.689h38.057v11.689h-6.504l-.469-5.097h-7.822v30.058l4.6.879V339h-17.725Zm34.845 0v-5.127l4.13-.879v-33.662l-4.57-.879v-5.156h13.096v18.047c.996-1.465 2.226-2.598 3.691-3.399 1.485-.82 3.164-1.23 5.039-1.23 3.184 0 5.703 1.064 7.559 3.193 1.875 2.11 2.812 5.381 2.812 9.815v13.271l4.102.879V339h-16.348v-5.127l3.692-.879v-13.33c0-2.285-.43-3.906-1.289-4.863-.86-.957-2.12-1.436-3.78-1.436-1.152 0-2.207.244-3.164.733-.937.468-1.709 1.162-2.314 2.08v16.816l3.691.879V339h-16.347Zm57.637.615c-3.027 0-5.674-.664-7.939-1.992-2.266-1.348-4.024-3.193-5.274-5.537-1.23-2.344-1.846-5.02-1.846-8.027v-1.172c0-3.145.586-5.928 1.758-8.35 1.172-2.441 2.822-4.355 4.951-5.742 2.149-1.406 4.678-2.1 7.588-2.08 2.871 0 5.283.566 7.237 1.699 1.953 1.133 3.437 2.764 4.453 4.893 1.015 2.129 1.523 4.707 1.523 7.734v4.658h-18.633l-.058.176c.117 1.387.459 2.627 1.025 3.721a6.567 6.567 0 0 0 2.461 2.549c1.055.605 2.334.908 3.838.908 1.562 0 3.018-.196 4.365-.586a17.23 17.23 0 0 0 3.985-1.787l2.314 5.273c-1.309 1.055-2.959 1.934-4.951 2.637-1.973.683-4.238 1.025-6.797 1.025Zm-6.123-19.57h10.576v-.762c0-1.289-.176-2.392-.527-3.31-.332-.938-.879-1.661-1.641-2.168-.742-.508-1.709-.762-2.9-.762-1.133 0-2.09.303-2.871.908-.782.586-1.397 1.397-1.846 2.432-.43 1.035-.723 2.207-.879 3.515l.088.147ZM307.226 339v-5.127l4.541-.879v-30.615l-4.541-.879v-5.156h20.215c3.281 0 6.094.508 8.438 1.523 2.343 1.016 4.14 2.471 5.39 4.365 1.27 1.895 1.904 4.17 1.904 6.827 0 2.5-.625 4.736-1.875 6.709-1.25 1.972-2.988 3.525-5.214 4.658-2.227 1.133-4.795 1.709-7.705 1.728h-8.057v10.84l4.57.879V339h-17.666Zm27.451 0-7.177-18.428 7.705-1.904 6.211 14.355 3.632.85V339h-10.371Zm-14.355-23.438h6.973c2.46 0 4.296-.517 5.507-1.552 1.231-1.055 1.846-2.578 1.846-4.571 0-1.972-.605-3.544-1.816-4.716-1.211-1.192-3.008-1.787-5.391-1.787h-7.119v12.626Zm47.676 24.053c-3.125 0-5.81-.683-8.056-2.051-2.246-1.367-3.965-3.261-5.156-5.683-1.192-2.442-1.788-5.244-1.788-8.408v-.616c0-3.144.596-5.927 1.788-8.349 1.191-2.442 2.9-4.346 5.127-5.713 2.246-1.387 4.921-2.08 8.027-2.08 3.144 0 5.83.693 8.056 2.08 2.227 1.367 3.936 3.262 5.127 5.684 1.192 2.421 1.788 5.214 1.788 8.378v.616c0 3.164-.596 5.966-1.788 8.408-1.191 2.422-2.9 4.316-5.127 5.683-2.226 1.368-4.892 2.051-7.998 2.051Zm0-6.562c1.485 0 2.696-.401 3.633-1.201.938-.801 1.631-1.914 2.08-3.34.45-1.446.674-3.125.674-5.039v-.616c0-1.875-.224-3.525-.674-4.951-.449-1.445-1.152-2.568-2.109-3.369-.938-.82-2.158-1.23-3.662-1.23-1.465 0-2.676.41-3.633 1.23-.957.801-1.66 1.924-2.109 3.369-.43 1.426-.645 3.076-.645 4.951v.616c0 1.914.215 3.593.645 5.039.449 1.445 1.152 2.568 2.109 3.369.957.781 2.188 1.172 3.691 1.172Zm38.419 6.562c-3.125 0-5.81-.683-8.056-2.051-2.247-1.367-3.965-3.261-5.157-5.683-1.191-2.442-1.787-5.244-1.787-8.408v-.616c0-3.144.596-5.927 1.787-8.349 1.192-2.442 2.901-4.346 5.127-5.713 2.246-1.387 4.922-2.08 8.028-2.08 3.144 0 5.83.693 8.056 2.08 2.227 1.367 3.936 3.262 5.127 5.684 1.192 2.421 1.787 5.214 1.787 8.378v.616c0 3.164-.595 5.966-1.787 8.408-1.191 2.422-2.9 4.316-5.127 5.683-2.226 1.368-4.892 2.051-7.998 2.051Zm0-6.562c1.485 0 2.695-.401 3.633-1.201.937-.801 1.631-1.914 2.08-3.34.449-1.446.674-3.125.674-5.039v-.616c0-1.875-.225-3.525-.674-4.951-.449-1.445-1.152-2.568-2.109-3.369-.938-.82-2.159-1.23-3.662-1.23-1.465 0-2.676.41-3.633 1.23-.957.801-1.66 1.924-2.11 3.369-.429 1.426-.644 3.076-.644 4.951v.616c0 1.914.215 3.593.644 5.039.45 1.445 1.153 2.568 2.11 3.369.957.781 2.187 1.172 3.691 1.172Zm35.167 6.562c-2.949 0-5.225-.81-6.826-2.431-1.582-1.622-2.373-4.19-2.373-7.705v-16.172h-4.365v-6.006h4.365v-7.764h8.525v7.764h5.83v6.006h-5.83v16.142c0 1.231.254 2.11.762 2.637.527.527 1.24.791 2.139.791.488 0 .996-.029 1.523-.088a26.104 26.104 0 0 0 1.406-.234l.733 6.181c-.879.254-1.836.459-2.871.616a17.755 17.755 0 0 1-3.018.263Z"/>
  </mask>
  <path fill="#fff" d="M16.791 339v-5.127l4.541-.879v-30.615l-4.541-.879v-5.156h17.666v5.156l-4.57.879v12.305h17.402v-12.305l-4.57-.879v-5.156h17.666v5.156l-4.57.879v30.615l4.57.879V339H42.719v-5.127l4.57-.879v-11.719H29.887v11.719l4.57.879V339H16.791Zm61.886.615c-3.145 0-5.645-.84-7.5-2.519-1.856-1.7-2.784-4.004-2.784-6.914 0-1.993.537-3.741 1.612-5.244 1.093-1.504 2.695-2.686 4.804-3.545 2.13-.86 4.746-1.289 7.852-1.289h4.19v-2.344c0-1.524-.45-2.754-1.348-3.692-.88-.957-2.207-1.435-3.985-1.435-.918 0-1.738.117-2.46.351a7.184 7.184 0 0 0-1.993.938l-.674 4.189H70.24l-.117-8.232a26.598 26.598 0 0 1 5.39-2.285c1.934-.586 4.092-.879 6.475-.879 4.14 0 7.412.967 9.815 2.9 2.402 1.914 3.603 4.658 3.603 8.233v14.355c.02.41.059.811.117 1.201l3.31.469V339H88.228a43.648 43.648 0 0 1-.644-1.758 10.97 10.97 0 0 1-.469-1.875 12.162 12.162 0 0 1-3.604 3.106c-1.367.761-2.978 1.142-4.833 1.142Zm2.285-6.328a7.62 7.62 0 0 0 3.398-.791c1.074-.547 1.904-1.26 2.49-2.139v-5.009h-4.218c-1.875 0-3.301.429-4.278 1.289-.957.859-1.435 1.894-1.435 3.105 0 1.133.351 2.012 1.054 2.637.723.605 1.72.908 2.989.908Zm40.03 6.328c-3.047 0-5.684-.683-7.91-2.051-2.207-1.367-3.907-3.252-5.098-5.654-1.191-2.422-1.787-5.185-1.787-8.291v-.879c0-3.125.605-5.888 1.816-8.291 1.211-2.402 2.92-4.287 5.127-5.654 2.207-1.387 4.805-2.08 7.793-2.08 2.852 0 5.303.449 7.354 1.347 2.07.879 3.75 1.905 5.039 3.077l-.059 9.082h-6.445l-1.143-5.655c-.468-.468-1.064-.849-1.787-1.142a5.8 5.8 0 0 0-2.197-.44c-1.563 0-2.861.391-3.897 1.172-1.015.782-1.777 1.895-2.285 3.34-.508 1.445-.761 3.193-.761 5.244v.879c0 2.168.283 3.955.849 5.361.567 1.387 1.319 2.413 2.256 3.077a5.476 5.476 0 0 0 3.193.996c1.504 0 2.705-.391 3.604-1.172.918-.801 1.543-1.924 1.875-3.369h7.324l.088.176c-.332 2.246-.996 4.189-1.992 5.83-.977 1.64-2.363 2.9-4.16 3.779-1.778.879-4.043 1.318-6.797 1.318ZM141.51 339v-5.127l4.131-.879v-33.662l-4.57-.879v-5.156h13.095v39.697l3.692.879V339H141.51Zm20.186 0v-4.863l2.402-.557-.059-.117-6.269-8.525 5.449-5.596 10.401 13.623 3.925.908V339h-15.849Zm-8.438-8.672-4.101-4.775 13.769-12.598.059-.088-3.252-.469v-5.097h16.494v5.156l-4.102 1.025-18.867 16.846ZM194.343 339v-5.127l4.57-.879v-30.058h-7.763l-.469 5.097h-6.475v-11.689h38.057v11.689h-6.504l-.469-5.097h-7.822v30.058l4.6.879V339h-17.725Zm34.845 0v-5.127l4.13-.879v-33.662l-4.57-.879v-5.156h13.096v18.047c.996-1.465 2.226-2.598 3.691-3.399 1.485-.82 3.164-1.23 5.039-1.23 3.184 0 5.703 1.064 7.559 3.193 1.875 2.11 2.812 5.381 2.812 9.815v13.271l4.102.879V339h-16.348v-5.127l3.692-.879v-13.33c0-2.285-.43-3.906-1.289-4.863-.86-.957-2.12-1.436-3.78-1.436-1.152 0-2.207.244-3.164.733-.937.468-1.709 1.162-2.314 2.08v16.816l3.691.879V339h-16.347Zm57.637.615c-3.027 0-5.674-.664-7.939-1.992-2.266-1.348-4.024-3.193-5.274-5.537-1.23-2.344-1.846-5.02-1.846-8.027v-1.172c0-3.145.586-5.928 1.758-8.35 1.172-2.441 2.822-4.355 4.951-5.742 2.149-1.406 4.678-2.1 7.588-2.08 2.871 0 5.283.566 7.237 1.699 1.953 1.133 3.437 2.764 4.453 4.893 1.015 2.129 1.523 4.707 1.523 7.734v4.658h-18.633l-.058.176c.117 1.387.459 2.627 1.025 3.721a6.567 6.567 0 0 0 2.461 2.549c1.055.605 2.334.908 3.838.908 1.562 0 3.018-.196 4.365-.586a17.23 17.23 0 0 0 3.985-1.787l2.314 5.273c-1.309 1.055-2.959 1.934-4.951 2.637-1.973.683-4.238 1.025-6.797 1.025Zm-6.123-19.57h10.576v-.762c0-1.289-.176-2.392-.527-3.31-.332-.938-.879-1.661-1.641-2.168-.742-.508-1.709-.762-2.9-.762-1.133 0-2.09.303-2.871.908-.782.586-1.397 1.397-1.846 2.432-.43 1.035-.723 2.207-.879 3.515l.088.147ZM307.226 339v-5.127l4.541-.879v-30.615l-4.541-.879v-5.156h20.215c3.281 0 6.094.508 8.438 1.523 2.343 1.016 4.14 2.471 5.39 4.365 1.27 1.895 1.904 4.17 1.904 6.827 0 2.5-.625 4.736-1.875 6.709-1.25 1.972-2.988 3.525-5.214 4.658-2.227 1.133-4.795 1.709-7.705 1.728h-8.057v10.84l4.57.879V339h-17.666Zm27.451 0-7.177-18.428 7.705-1.904 6.211 14.355 3.632.85V339h-10.371Zm-14.355-23.438h6.973c2.46 0 4.296-.517 5.507-1.552 1.231-1.055 1.846-2.578 1.846-4.571 0-1.972-.605-3.544-1.816-4.716-1.211-1.192-3.008-1.787-5.391-1.787h-7.119v12.626Zm47.676 24.053c-3.125 0-5.81-.683-8.056-2.051-2.246-1.367-3.965-3.261-5.156-5.683-1.192-2.442-1.788-5.244-1.788-8.408v-.616c0-3.144.596-5.927 1.788-8.349 1.191-2.442 2.9-4.346 5.127-5.713 2.246-1.387 4.921-2.08 8.027-2.08 3.144 0 5.83.693 8.056 2.08 2.227 1.367 3.936 3.262 5.127 5.684 1.192 2.421 1.788 5.214 1.788 8.378v.616c0 3.164-.596 5.966-1.788 8.408-1.191 2.422-2.9 4.316-5.127 5.683-2.226 1.368-4.892 2.051-7.998 2.051Zm0-6.562c1.485 0 2.696-.401 3.633-1.201.938-.801 1.631-1.914 2.08-3.34.45-1.446.674-3.125.674-5.039v-.616c0-1.875-.224-3.525-.674-4.951-.449-1.445-1.152-2.568-2.109-3.369-.938-.82-2.158-1.23-3.662-1.23-1.465 0-2.676.41-3.633 1.23-.957.801-1.66 1.924-2.109 3.369-.43 1.426-.645 3.076-.645 4.951v.616c0 1.914.215 3.593.645 5.039.449 1.445 1.152 2.568 2.109 3.369.957.781 2.188 1.172 3.691 1.172Zm38.419 6.562c-3.125 0-5.81-.683-8.056-2.051-2.247-1.367-3.965-3.261-5.157-5.683-1.191-2.442-1.787-5.244-1.787-8.408v-.616c0-3.144.596-5.927 1.787-8.349 1.192-2.442 2.901-4.346 5.127-5.713 2.246-1.387 4.922-2.08 8.028-2.08 3.144 0 5.83.693 8.056 2.08 2.227 1.367 3.936 3.262 5.127 5.684 1.192 2.421 1.787 5.214 1.787 8.378v.616c0 3.164-.595 5.966-1.787 8.408-1.191 2.422-2.9 4.316-5.127 5.683-2.226 1.368-4.892 2.051-7.998 2.051Zm0-6.562c1.485 0 2.695-.401 3.633-1.201.937-.801 1.631-1.914 2.08-3.34.449-1.446.674-3.125.674-5.039v-.616c0-1.875-.225-3.525-.674-4.951-.449-1.445-1.152-2.568-2.109-3.369-.938-.82-2.159-1.23-3.662-1.23-1.465 0-2.676.41-3.633 1.23-.957.801-1.66 1.924-2.11 3.369-.429 1.426-.644 3.076-.644 4.951v.616c0 1.914.215 3.593.644 5.039.45 1.445 1.153 2.568 2.11 3.369.957.781 2.187 1.172 3.691 1.172Zm35.167 6.562c-2.949 0-5.225-.81-6.826-2.431-1.582-1.622-2.373-4.19-2.373-7.705v-16.172h-4.365v-6.006h4.365v-7.764h8.525v7.764h5.83v6.006h-5.83v16.142c0 1.231.254 2.11.762 2.637.527.527 1.24.791 2.139.791.488 0 .996-.029 1.523-.088a26.104 26.104 0 0 0 1.406-.234l.733 6.181c-.879.254-1.836.459-2.871.616a17.755 17.755 0 0 1-3.018.263Z"/>
  <path fill="#000" fill-opacity=".96" d="M16.791 339h-3v3h3v-3Zm0-5.127-.57-2.945-2.43.47v2.475h3Zm4.541-.879.57 2.945 2.43-.47v-2.475h-3Zm0-30.615h3v-2.475l-2.43-.47-.57 2.945Zm-4.541-.879h-3v2.475l2.43.47.57-2.945Zm0-5.156v-3h-3v3h3Zm17.666 0h3v-3h-3v3Zm0 5.156.567 2.946 2.433-.468V301.5h-3Zm-4.57.879-.567-2.946-2.433.468v2.478h3Zm0 12.305h-3v3h3v-3Zm17.402 0v3h3v-3h-3Zm0-12.305h3v-2.478l-2.433-.468-.567 2.946Zm-4.57-.879h-3v2.478l2.433.468.567-2.946Zm0-5.156v-3h-3v3h3Zm17.666 0h3v-3h-3v3Zm0 5.156.566 2.946 2.434-.468V301.5h-3Zm-4.57.879-.567-2.946-2.433.468v2.478h3Zm0 30.615h-3v2.478l2.433.468.567-2.946Zm4.57.879h3v-2.478l-2.434-.468-.566 2.946Zm0 5.127v3h3v-3h-3Zm-17.666 0h-3v3h3v-3Zm0-5.127-.567-2.946-2.433.468v2.478h3Zm4.57-.879.567 2.946 2.433-.468v-2.478h-3Zm0-11.719h3v-3h-3v3Zm-17.402 0v-3h-3v3h3Zm0 11.719h-3v2.478l2.433.468.567-2.946Zm4.57.879h3v-2.478l-2.433-.468-.567 2.946Zm0 5.127v3h3v-3h-3Zm-14.666 0v-5.127h-6V339h6Zm-2.43-2.182 4.541-.879-1.14-5.89-4.541.879 1.14 5.89Zm6.971-3.824v-30.615h-6v30.615h6Zm-2.43-33.56-4.54-.879-1.141 5.89 4.541.879 1.14-5.89Zm-2.111 2.066v-5.156h-6v5.156h6Zm-3-2.156h17.666v-6H16.791v6Zm14.666-3v5.156h6v-5.156h-6Zm2.434 2.21-4.57.879 1.132 5.892 4.57-.879-1.133-5.892Zm-7.004 3.825v12.305h6v-12.305h-6Zm3 15.305h17.402v-6H29.887v6Zm20.402-3v-12.305h-6v12.305h6Zm-2.433-15.251-4.57-.879-1.134 5.892 4.57.879 1.134-5.892Zm-2.137 2.067v-5.156h-6v5.156h6Zm-3-2.156h4.57v-6h-4.57v6Zm4.57 0h8.526v-6h-8.526v6Zm8.526 0h4.57v-6h-4.57v6Zm1.57-3v5.156h6v-5.156h-6Zm2.433 2.21-4.57.879 1.133 5.892 4.57-.879-1.133-5.892Zm-7.003 3.825v30.615h6v-30.615h-6Zm2.433 33.561 4.57.879 1.133-5.892-4.57-.879-1.133 5.892Zm2.137-2.067V339h6v-5.127h-6Zm3 2.127H42.719v6h17.666v-6Zm-14.666 3v-5.127h-6V339h6Zm-2.434-2.181 4.57-.879-1.133-5.892-4.57.879 1.133 5.892Zm7.004-3.825v-11.719h-6v11.719h6Zm-3-14.719H29.887v6h17.402v-6Zm-20.402 3v11.719h6v-11.719h-6Zm2.433 14.665 4.57.879 1.134-5.892-4.57-.879-1.134 5.892Zm2.137-2.067V339h6v-5.127h-6Zm3 2.127H16.791v6h17.666v-6Zm36.72 1.096-2.027 2.212.007.006.006.006 2.014-2.224Zm-1.172-12.158-2.426-1.765-.008.01-.007.011 2.44 1.744Zm4.804-3.545-1.123-2.782-.009.003 1.132 2.779Zm12.041-1.289v3h3v-3h-3Zm-1.347-6.036-2.21 2.03.022.023.022.023 2.166-2.076Zm-6.446-1.084.855 2.876.036-.011.035-.011-.926-2.854Zm-1.992.938-1.682-2.484-1.074.727-.206 1.28 2.962.477Zm-.674 4.189v3h2.556l.406-2.523-2.962-.477Zm-6.152 0-3 .043.042 2.957h2.958v-3Zm-.117-8.232-1.475-2.612-1.55.875.025 1.78 3-.043Zm21.68-.264-1.882 2.337.006.005.006.005 1.87-2.347Zm3.603 22.588h-3v.072l.004.071 2.996-.143Zm.117 1.201-2.967.445.332 2.212 2.215.314.42-2.971Zm3.31.469h3.001v-2.605l-2.58-.365-.42 2.97Zm0 5.127v3h3.001v-3h-3Zm-10.605 0-2.792 1.097.748 1.903h2.044v-3Zm-1.113-3.633 2.964-.463-1.062-6.798-4.258 5.405 2.356 1.856Zm-3.604 3.106 1.46 2.62.007-.003.006-.004-1.473-2.613Zm.85-5.977 1.322 2.693.02-.01.02-.009-1.362-2.674Zm2.49-2.139 2.497 1.665.503-.756v-.909h-3Zm0-5.009h3v-3h-3v3Zm-8.496 1.289-1.982-2.252-.01.01-.012.01 2.004 2.232Zm-.38 5.742-1.994 2.242.033.029.034.028 1.926-2.299Zm.703 4.236c-2.599 0-4.314-.682-5.487-1.743l-4.027 4.448c2.538 2.298 5.823 3.295 9.514 3.295v-6Zm-5.474-1.732c-1.136-1.04-1.81-2.488-1.81-4.701h-6c0 3.606 1.182 6.768 3.757 9.126l4.053-4.425Zm-1.81-4.701c0-1.419.37-2.546 1.053-3.501l-4.882-3.487c-1.467 2.053-2.17 4.422-2.17 6.988h6Zm1.038-3.48c.698-.96 1.802-1.835 3.51-2.531l-2.264-5.557c-2.51 1.023-4.61 2.511-6.099 4.559l4.853 3.529Zm3.501-2.528c1.67-.674 3.88-1.07 6.729-1.07v-6c-3.363 0-6.387.462-8.975 1.507l2.246 5.563Zm6.729-1.07h4.19v-6h-4.19v6Zm7.19-3v-2.344h-6v2.344h6Zm0-2.344c0-2.154-.657-4.176-2.182-5.767l-4.332 4.151c.271.283.513.722.513 1.616h6Zm-2.139-5.721c-1.632-1.778-3.897-2.406-6.194-2.406v6c1.258 0 1.65.328 1.775.465l4.42-4.059Zm-6.194-2.406c-1.169 0-2.31.149-3.386.498l1.85 5.707c.37-.12.87-.205 1.536-.205v-6Zm-3.316.476a10.144 10.144 0 0 0-2.82 1.329l3.366 4.968a4.162 4.162 0 0 1 1.164-.546l-1.71-5.751Zm-4.099 3.336-.673 4.19 5.923.953.674-4.19-5.924-.953Zm2.288 1.666H70.24v6h6.152v-6Zm-3.152 2.958-.117-8.233-6 .086.117 8.232 6-.085Zm-1.642-5.578c1.458-.823 3.05-1.5 4.785-2.026l-1.74-5.742a29.621 29.621 0 0 0-5.995 2.544l2.95 5.224Zm4.785-2.026c1.607-.487 3.466-.75 5.605-.75v-6c-2.626 0-5.084.323-7.344 1.008l1.74 5.742Zm5.605-.75c3.69 0 6.222.86 7.934 2.237l3.762-4.674c-3.094-2.489-7.105-3.563-11.696-3.563v6Zm7.945 2.247c1.566 1.247 2.473 3.057 2.473 5.886h6c0-4.32-1.496-7.999-4.734-10.579l-3.739 4.693Zm2.473 5.886v13.066h6v-13.066h-6Zm0 13.066v1.289h6v-1.289h-6Zm.004 1.432c.024.507.072 1.009.146 1.503l5.934-.89a8.895 8.895 0 0 1-.087-.899l-5.993.286Zm2.693 4.029 3.31.468.841-5.94-3.31-.469-.841 5.941Zm.73-2.502V339h6.001v-5.127h-6Zm3 2.127H88.228v6h10.606v-6Zm-7.812 1.903a40.488 40.488 0 0 1-.6-1.636l-5.674 1.95c.227.661.457 1.288.69 1.88l5.584-2.194Zm-.6-1.636a7.991 7.991 0 0 1-.342-1.363l-5.928.926c.126.807.326 1.603.596 2.387l5.674-1.95Zm-5.662-2.756a9.15 9.15 0 0 1-2.72 2.348l2.945 5.227a15.138 15.138 0 0 0 4.487-3.862l-4.712-3.713Zm-2.708 2.341c-.844.47-1.934.763-3.373.763v6c2.271 0 4.404-.469 6.294-1.522l-2.92-5.241Zm-1.088.435c1.652 0 3.236-.37 4.72-1.098l-2.644-5.386a4.619 4.619 0 0 1-2.076.484v6Zm4.76-1.117c1.467-.747 2.715-1.784 3.625-3.148l-4.993-3.329c-.262.394-.674.783-1.355 1.13l2.722 5.347Zm4.128-4.813v-5.009h-6v5.009h6Zm-3-8.009h-4.218v6h4.218v-6Zm-4.218 0c-2.288 0-4.537.52-6.26 2.037l3.964 4.504c.23-.203.833-.541 2.296-.541v-6Zm-6.282 2.057c-1.546 1.388-2.431 3.217-2.431 5.337h6c0-.301.072-.543.44-.873l-4.01-4.464Zm-2.431 5.337c0 1.799.588 3.569 2.061 4.879l3.986-4.484.002.003c.005.007.004.008 0-.003-.01-.023-.05-.137-.05-.395h-6Zm2.128 4.936c1.425 1.194 3.186 1.609 4.915 1.609v-6c-.81 0-1.041-.19-1.062-.208l-3.853 4.599Zm37.035 2.886-1.58 2.551.01.006 1.57-2.557Zm-5.098-5.654-2.692 1.324.004.009 2.688-1.333Zm5.156-23.115 1.58 2.55.008-.005.008-.005-1.596-2.54Zm15.147-.733-1.204 2.748.016.007.015.007 1.173-2.762Zm5.039 3.077 3 .019.008-1.339-.99-.9-2.018 2.22Zm-.059 9.082v3h2.981l.019-2.981-3-.019Zm-6.445 0-2.941.594.486 2.406h2.455v-3Zm-1.143-5.655 2.941-.594-.179-.887-.64-.64-2.122 2.121Zm-7.881-.41-1.807-2.394-.011.008-.011.008 1.829 2.378Zm-2.197 14.824-2.783 1.121.003.007.003.007 2.777-1.135Zm2.256 3.077-1.734 2.448.012.008.012.008 1.71-2.464Zm6.797-.176 1.968 2.264.004-.003-1.972-2.261Zm1.875-3.369v-3h-2.389l-.535 2.328 2.924.672Zm7.324 0 2.683-1.342-.829-1.658h-1.854v3Zm.088.176 2.968.438.138-.935-.423-.845-2.683 1.342Zm-1.992 5.83-2.565-1.557-.006.011-.007.011 2.578 1.535Zm-4.16 3.779-1.318-2.695-.012.006 1.33 2.689Zm-6.797-1.682c-2.586 0-4.66-.575-6.341-1.607l-3.139 5.113c2.772 1.702 5.972 2.494 9.48 2.494v-6Zm-6.331-1.601c-1.715-1.062-3.038-2.518-3.989-4.437l-5.376 2.666c1.432 2.886 3.507 5.2 6.206 6.872l3.159-5.101Zm-3.985-4.428c-.96-1.952-1.479-4.251-1.479-6.967h-6c0 3.496.672 6.724 2.095 9.615l5.384-2.648Zm-1.479-6.967v-.879h-6v.879h6Zm0-.879c0-2.732.527-5.02 1.495-6.94l-5.358-2.701c-1.453 2.884-2.137 6.123-2.137 9.641h6Zm1.495-6.94c.972-1.928 2.309-3.39 4.028-4.455l-3.16-5.1c-2.694 1.669-4.775 3.977-6.226 6.854l5.358 2.701Zm4.044-4.465c1.662-1.044 3.689-1.62 6.197-1.62v-6c-3.468 0-6.637.811-9.389 2.54l3.192 5.08Zm6.197-1.62c2.547 0 4.567.402 6.15 1.095l2.408-5.495c-2.519-1.104-5.401-1.6-8.558-1.6v6Zm6.181 1.109c1.846.783 3.215 1.645 4.194 2.534l4.036-4.439c-1.599-1.454-3.59-2.644-5.885-3.618l-2.345 5.523Zm3.212.295-.059 9.082 6 .039.059-9.082-6-.039Zm2.941 6.102h-6.445v6h6.445v-6Zm-3.505 2.405-1.142-5.654-5.881 1.189 1.142 5.654 5.881-1.189Zm-1.961-7.181c-.799-.798-1.752-1.384-2.782-1.801l-2.254 5.56c.415.168.654.344.793.484l4.243-4.243Zm-2.782-1.801a8.793 8.793 0 0 0-3.324-.66v6c.336 0 .687.065 1.07.22l2.254-5.56Zm-3.324-.66c-2.077 0-4.048.528-5.704 1.778l3.615 4.789c.414-.313 1.041-.567 2.089-.567v-6Zm-5.726 1.794c-1.56 1.2-2.624 2.839-3.286 4.724l5.661 1.989c.353-1.006.812-1.594 1.284-1.957l-3.659-4.756Zm-3.286 4.724c-.651 1.852-.931 3.956-.931 6.238h6c0-1.819.227-3.211.592-4.249l-5.661-1.989Zm-.931 6.238v.879h6v-.879h-6Zm0 .879c0 2.4.309 4.602 1.066 6.482l5.566-2.241c-.375-.932-.632-2.305-.632-4.241h-6Zm1.072 6.496c.718 1.757 1.774 3.31 3.299 4.39l3.468-4.896c-.35-.248-.797-.747-1.213-1.763l-5.554 2.269Zm3.323 4.406a8.47 8.47 0 0 0 4.903 1.532v-6a2.483 2.483 0 0 1-1.483-.461l-3.42 4.929Zm4.903 1.532c2.031 0 3.996-.538 5.572-1.908l-3.937-4.528c-.22.192-.658.436-1.635.436v6Zm5.576-1.911c1.491-1.301 2.384-3.033 2.827-4.959l-5.848-1.343c-.222.965-.578 1.479-.923 1.78l3.944 4.522Zm-.097-2.63h7.324v-6h-7.324v6Zm4.641-1.659.088.176 5.366-2.683-.088-.176-5.366 2.683Zm-.197-1.604c-.284 1.921-.835 3.47-1.589 4.712l5.129 3.114c1.238-2.04 2.016-4.378 2.396-6.949l-5.936-.877Zm-1.602 4.734c-.664 1.115-1.601 1.983-2.9 2.619l2.636 5.39c2.294-1.122 4.13-2.774 5.42-4.94l-5.156-3.069Zm-2.912 2.625c-1.235.611-3.006 1.007-5.467 1.007v6c3.046 0 5.807-.482 8.126-1.629l-2.659-5.378ZM141.51 339h-3v3h3v-3Zm0-5.127-.624-2.934-2.376.505v2.429h3Zm4.131-.879.624 2.934 2.376-.505v-2.429h-3Zm0-33.662h3v-2.478l-2.433-.468-.567 2.946Zm-4.57-.879h-3v2.478l2.433.468.567-2.946Zm0-5.156v-3h-3v3h3Zm13.095 0h3v-3h-3v3Zm0 39.697h-3v2.37l2.306.549.694-2.919Zm3.692.879h3v-2.37l-2.305-.548-.695 2.918Zm0 5.127v3h3v-3h-3Zm3.838 0h-3v3h3v-3Zm0-4.863-.677-2.923-2.323.538v2.385h3Zm2.402-.557.677 2.923 3.709-.86-1.703-3.405-2.683 1.342Zm-.059-.117 2.684-1.342-.115-.229-.152-.206-2.417 1.777Zm-6.269-8.525-2.149-2.094-1.774 1.822 1.506 2.049 2.417-1.777Zm5.449-5.596 2.385-1.821-2.109-2.762-2.425 2.49 2.149 2.093Zm10.401 13.623-2.385 1.82.656.859 1.052.244.677-2.923Zm3.925.908h3v-2.385l-2.324-.538-.676 2.923Zm0 5.127v3h3v-3h-3Zm-24.287-8.672-2.276 1.955 1.993 2.32 2.281-2.037-1.998-2.238Zm-4.101-4.775-2.025-2.214-2.145 1.963 1.894 2.205 2.276-1.954Zm13.769-12.598 2.025 2.213.269-.246.202-.303-2.496-1.664Zm.059-.088 2.496 1.664 2.637-3.955-4.705-.678-.428 2.969Zm-3.252-.469h-3v2.599l2.572.371.428-2.97Zm0-5.097v-3h-3v3h3Zm16.494 0h3v-3h-3v3Zm0 5.156.728 2.91 2.272-.568v-2.342h-3Zm-4.102 1.025-.727-2.91-.718.18-.553.493 1.998 2.237ZM144.51 339v-5.127h-6V339h6Zm-2.376-2.193 4.131-.879-1.248-5.868-4.131.879 1.248 5.868Zm6.507-3.813v-33.662h-6v33.662h6Zm-2.433-36.608-4.571-.879-1.133 5.892 4.57.879 1.134-5.892Zm-2.137 2.067v-5.156h-6v5.156h6Zm-3-2.156h13.095v-6h-13.095v6Zm10.095-3v39.697h6v-39.697h-6Zm2.306 42.616 3.691.878 1.39-5.836-3.692-.879-1.389 5.837Zm1.386-2.04V339h6v-5.127h-6Zm3 2.127H141.51v6h16.348v-6Zm6.838 3v-4.863h-6V339h6Zm-2.323-1.941 2.402-.556-1.354-5.845-2.402.556 1.354 5.845Zm4.408-4.821-.058-.117-5.367 2.684.059.117 5.366-2.684Zm-.325-.552-6.269-8.526-4.834 3.555 6.27 8.525 4.833-3.554Zm-6.537-4.655 5.449-5.596-4.298-4.186-5.449 5.595 4.298 4.187Zm.916-5.869 10.4 13.623 4.769-3.641-10.4-13.623-4.769 3.641Zm12.108 14.726 3.926.908 1.352-5.846-3.925-.908-1.353 5.846Zm1.602-2.015V339h6v-5.127h-6Zm3 2.127h-15.849v6h15.849v-6Zm-22.011-7.627-4.102-4.775-4.551 3.909 4.101 4.776 4.552-3.91Zm-4.352-.607 13.769-12.598-4.05-4.426-13.769 12.597 4.05 4.427Zm14.24-13.147.059-.088-4.992-3.328-.059.088 4.992 3.328Zm-2.009-4.721-3.252-.469-.856 5.939 3.252.468.856-5.938Zm-.68 2.5v-5.097h-6v5.097h6Zm-3-2.097h16.494v-6h-16.494v6Zm13.494-3v5.156h6v-5.156h-6Zm2.272 2.246-4.101 1.025 1.455 5.821 4.102-1.026-1.456-5.82Zm-5.372 1.698L151.26 328.09l3.996 4.476 18.867-16.846-3.996-4.475ZM194.343 339h-3v3h3v-3Zm0-5.127-.567-2.946-2.433.468v2.478h3Zm4.57-.879.567 2.946 2.433-.468v-2.478h-3Zm0-30.058h3v-3h-3v3Zm-7.763 0v-3h-2.737l-.251 2.725 2.988.275Zm-.469 5.097v3h2.737l.25-2.725-2.987-.275Zm-6.475 0h-3v3h3v-3Zm0-11.689v-3h-3v3h3Zm38.057 0h3v-3h-3v3Zm0 11.689v3h3v-3h-3Zm-6.504 0-2.987.275.25 2.725h2.737v-3Zm-.469-5.097 2.988-.275-.251-2.725h-2.737v3Zm-7.822 0v-3h-3v3h3Zm0 30.058h-3v2.481l2.437.466.563-2.947Zm4.6.879h3v-2.481l-2.437-.466-.563 2.947Zm0 5.127v3h3v-3h-3Zm-14.725 0v-5.127h-6V339h6Zm-2.433-2.181 4.57-.879-1.133-5.892-4.571.879 1.134 5.892Zm7.003-3.825v-30.058h-6v30.058h6Zm-3-33.058h-7.763v6h7.763v-6Zm-10.751 2.725-.469 5.097 5.975.55.469-5.098-5.975-.549Zm2.519 2.372h-6.475v6h6.475v-6Zm-3.475 3v-11.689h-6v11.689h6Zm-3-8.689h38.057v-6h-38.057v6Zm35.057-3v11.689h6v-11.689h-6Zm3 8.689h-6.504v6h6.504v-6Zm-3.517 2.725-.468-5.097-5.975.549.469 5.098 5.974-.55Zm-3.456-7.822h-7.822v6h7.822v-6Zm-10.822 3v30.058h6v-30.058h-6Zm2.437 33.005 4.6.879 1.126-5.894-4.6-.879-1.126 5.894Zm2.163-2.068V339h6v-5.127h-6Zm3 2.127h-17.725v6h17.725v-6Zm17.12 3h-3v3h3v-3Zm0-5.127-.625-2.934-2.375.505v2.429h3Zm4.13-.879.625 2.934 2.375-.505v-2.429h-3Zm0-33.662h3v-2.478l-2.433-.468-.567 2.946Zm-4.57-.879h-3v2.478l2.434.468.566-2.946Zm0-5.156v-3h-3v3h3Zm13.096 0h3v-3h-3v3Zm0 18.047h-3v9.747l5.481-8.06-2.481-1.687Zm3.691-3.399 1.439 2.633.012-.007-1.451-2.626Zm12.598 1.963-2.262 1.971.01.011.01.011 2.242-1.993Zm2.812 23.086h-3v2.425l2.372.509.628-2.934Zm4.102.879h3v-2.425l-2.372-.508-.628 2.933Zm0 5.127v3h3v-3h-3Zm-16.348 0h-3v3h3v-3Zm0-5.127-.695-2.918-2.305.548v2.37h3Zm3.692-.879.694 2.919 2.306-.549v-2.37h-3Zm-8.233-18.896 1.342 2.683.011-.006.011-.005-1.364-2.672Zm-2.314 2.08-2.505-1.652-.495.751v.901h3Zm0 16.816h-3v2.37l2.305.549.695-2.919Zm3.691.879h3v-2.37l-2.305-.548-.695 2.918Zm0 5.127v3h3v-3h-3Zm-13.347 0v-5.127h-6V339h6Zm-2.376-2.193 4.131-.879-1.249-5.868-4.131.879 1.249 5.868Zm6.506-3.813v-33.662h-6v33.662h6Zm-2.433-36.608-4.57-.879-1.133 5.892 4.57.879 1.133-5.892Zm-2.137 2.067v-5.156h-6v5.156h6Zm-3-2.156h13.096v-6h-13.096v6Zm10.096-3v18.047h6v-18.047h-6Zm5.481 19.734c.745-1.097 1.627-1.895 2.649-2.453l-2.878-5.265c-1.907 1.043-3.486 2.51-4.733 4.344l4.962 3.374Zm2.661-2.46c.995-.55 2.166-.856 3.588-.856v-6c-2.328 0-4.516.514-6.49 1.605l2.902 5.251Zm3.588-.856c2.44 0 4.088.777 5.297 2.164l4.523-3.942c-2.501-2.87-5.892-4.222-9.82-4.222v6Zm5.317 2.186c1.174 1.321 2.054 3.723 2.054 7.822h6c0-4.769-.994-8.91-3.57-11.808l-4.484 3.986Zm2.054 7.822v13.271h6v-13.271h-6Zm2.372 16.205 4.101.878 1.257-5.866-4.101-.879-1.257 5.867Zm1.73-2.055V339h6v-5.127h-6Zm3 2.127h-16.348v6h16.348v-6Zm-13.348 3v-5.127h-6V339h6Zm-2.305-2.209 3.691-.878-1.389-5.837-3.692.879 1.39 5.836Zm5.997-3.797v-13.33h-6v13.33h6Zm0-13.33c0-2.505-.441-5.068-2.057-6.868l-4.465 4.009c.103.114.522.794.522 2.859h6Zm-2.057-6.868c-1.584-1.763-3.763-2.431-6.012-2.431v6c1.072 0 1.412.289 1.547.44l4.465-4.009Zm-6.012-2.431c-1.591 0-3.118.341-4.527 1.06l2.727 5.345c.504-.257 1.087-.405 1.8-.405v-6Zm-4.505 1.049c-1.433.717-2.597 1.776-3.478 3.112l5.009 3.304c.33-.501.709-.828 1.152-1.049l-2.683-5.367Zm-3.973 4.764v16.816h6v-16.816h-6Zm2.305 19.735 3.691.878 1.39-5.836-3.691-.879-1.39 5.837Zm1.386-2.04V339h6v-5.127h-6Zm3 2.127h-16.347v6h16.347v-6Zm33.351 1.623-1.534 2.578.008.005.008.005 1.518-2.588Zm-5.274-5.537-2.656 1.394.004.009.005.009 2.647-1.412Zm-.088-17.549 2.701 1.307.004-.009-2.705-1.298Zm4.951-5.742 1.638 2.514.005-.004-1.643-2.51Zm7.588-2.08-.02 3h.02v-3Zm7.237 1.699-1.506 2.595 1.506-2.595Zm5.976 17.285v3h3v-3h-3Zm-18.633 0v-3h-2.162l-.684 2.052 2.846.948Zm-.058.176-2.846-.949-.196.586.052.616 2.99-.253Zm1.025 3.721-2.664 1.379.015.029.015.028 2.634-1.436Zm2.461 2.549-1.529 2.58.018.011.018.01 1.493-2.601Zm8.203.322.835 2.881.014-.004.013-.004-.862-2.873Zm3.985-1.787 2.747-1.206-1.376-3.134-2.926 1.774 1.555 2.566Zm2.314 5.273 1.883 2.336 1.786-1.44-.922-2.102-2.747 1.206Zm-4.951 2.637.982 2.834.008-.002.008-.003-.998-2.829Zm-12.92-18.545-2.573 1.543.874 1.457h1.699v-3Zm10.576 0v3h3v-3h-3Zm-.527-4.072-2.828 1.001.013.036.013.036 2.802-1.073Zm-1.641-2.168-1.694 2.476.015.01.015.01 1.664-2.496Zm-5.771.146 1.8 2.4.019-.014.018-.015-1.837-2.371Zm-1.846 2.432-2.752-1.194-.01.022-.009.022 2.771 1.15Zm-.879 3.515-2.979-.355-.121 1.019.528.88 2.572-1.544Zm6.211 16.717c-2.577 0-4.683-.561-6.422-1.58l-3.035 5.176c2.793 1.637 5.979 2.404 9.457 2.404v-6Zm-6.406-1.57c-1.791-1.066-3.165-2.506-4.16-4.371l-5.294 2.824c1.506 2.823 3.647 5.074 6.387 6.703l3.067-5.156Zm-4.151-4.354c-.975-1.858-1.502-4.044-1.502-6.632h-6c0 3.426.704 6.592 2.19 9.421l5.312-2.789Zm-1.502-6.632v-1.172h-6v1.172h6Zm0-1.172c0-2.768.515-5.092 1.459-7.043l-5.401-2.614c-1.4 2.893-2.058 6.136-2.058 9.657h6Zm1.463-7.052c.95-1.98 2.246-3.459 3.884-4.526l-3.275-5.028c-2.62 1.707-4.625 4.055-6.018 6.958l5.409 2.596Zm3.889-4.53c1.591-1.041 3.524-1.606 5.925-1.59l.04-6c-3.419-.023-6.544.798-9.251 2.57l3.286 5.02Zm5.945-1.59c2.484 0 4.344.489 5.731 1.294l3.011-5.19c-2.519-1.461-5.483-2.104-8.742-2.104v6Zm5.731 1.294c1.406.816 2.483 1.98 3.251 3.589l5.415-2.583c-1.263-2.649-3.155-4.746-5.655-6.196l-3.011 5.19Zm3.251 3.589c.777 1.628 1.231 3.74 1.231 6.443h6c0-3.352-.561-6.396-1.816-9.026l-5.415 2.583Zm1.231 6.443v4.658h6v-4.658h-6Zm3 1.658h-18.633v6h18.633v-6Zm-21.479 2.052-.058.175 5.692 1.898.058-.176-5.692-1.897Zm-.202 1.377c.147 1.729.581 3.36 1.351 4.847l5.328-2.759c-.363-.7-.612-1.549-.7-2.594l-5.979.506Zm1.381 4.904a9.565 9.565 0 0 0 3.566 3.693l3.059-5.161a3.566 3.566 0 0 1-1.357-1.405l-5.268 2.873Zm3.602 3.714c1.605.922 3.426 1.307 5.331 1.307v-6c-1.103 0-1.84-.221-2.344-.51l-2.987 5.203Zm5.331 1.307c1.813 0 3.553-.227 5.2-.705l-1.67-5.763c-1.047.304-2.218.468-3.53.468v6Zm5.227-.713a20.188 20.188 0 0 0 4.678-2.095l-3.11-5.131a14.21 14.21 0 0 1-3.292 1.479l1.724 5.747Zm.376-3.455 2.314 5.274 5.494-2.412-2.314-5.273-5.494 2.411Zm3.178 1.732c-.985.795-2.316 1.526-4.067 2.144l1.997 5.658c2.234-.789 4.204-1.815 5.836-3.13l-3.766-4.672Zm-4.05 2.138c-1.595.553-3.518.86-5.815.86v6c2.82 0 5.429-.376 7.779-1.191l-1.964-5.669Zm-11.938-12.71h10.576v-6h-10.576v6Zm13.576-3v-.762h-6v.762h6Zm0-.762c0-1.547-.209-3.035-.726-4.383l-5.603 2.146c.187.487.329 1.207.329 2.237h6Zm-.699-4.312c-.529-1.492-1.457-2.764-2.805-3.662l-3.328 4.992c.175.117.341.291.477.673l5.656-2.003Zm-2.775-3.642c-1.38-.944-2.992-1.286-4.594-1.286v6c.78 0 1.102.166 1.206.238l3.388-4.952Zm-4.594-1.286c-1.697 0-3.327.466-4.709 1.537l3.675 4.742c.181-.139.465-.279 1.034-.279v-6Zm-4.671 1.508c-1.259.944-2.174 2.2-2.798 3.638l5.504 2.388c.275-.632.59-.998.894-1.226l-3.6-4.8Zm-2.817 3.682c-.552 1.329-.903 2.775-1.087 4.31l5.958.711c.129-1.082.363-1.98.671-2.721l-5.542-2.3Zm-.68 6.209.087.146 5.145-3.087-.087-.146-5.145 3.087ZM307.226 339h-3v3h3v-3Zm0-5.127-.57-2.945-2.43.47v2.475h3Zm4.541-.879.57 2.945 2.43-.47v-2.475h-3Zm0-30.615h3v-2.475l-2.43-.47-.57 2.945Zm-4.541-.879h-3v2.475l2.43.47.57-2.945Zm0-5.156v-3h-3v3h3Zm34.043 5.888-2.504 1.653.006.009.006.008 2.492-1.67Zm-12.89 19.922v3h.02l-.02-3Zm-8.057 0v-3h-3v3h3Zm0 10.84h-3v2.478l2.433.468.567-2.946Zm4.57.879h3v-2.478l-2.433-.468-.567 2.946Zm0 5.127v3h3v-3h-3Zm9.785 0-2.795 1.089.744 1.911h2.051v-3Zm-7.177-18.428-.72-2.912-3.315.819 1.239 3.182 2.796-1.089Zm7.705-1.904 2.753-1.191-1.008-2.331-2.465.61.72 2.912Zm6.211 14.355-2.754 1.192.6 1.386 1.47.344.684-2.922Zm3.632.85h3v-2.379l-2.316-.542-.684 2.921Zm0 5.127v3h3v-3h-3Zm-24.726-23.438h-3v3h3v-3Zm12.48-1.552 1.95 2.28.003-.002-1.953-2.278Zm.03-9.287-2.104 2.138.008.009.009.008 2.087-2.155Zm-12.51-1.787v-3h-3v3h3ZM310.226 339v-5.127h-6V339h6Zm-2.43-2.182 4.541-.879-1.14-5.89-4.541.879 1.14 5.89Zm6.971-3.824v-30.615h-6v30.615h6Zm-2.43-33.56-4.541-.879-1.14 5.89 4.541.879 1.14-5.89Zm-2.111 2.066v-5.156h-6v5.156h6Zm-3-2.156h20.215v-6h-20.215v6Zm20.215 0c2.983 0 5.368.463 7.245 1.276l2.385-5.505c-2.811-1.219-6.05-1.771-9.63-1.771v6Zm7.245 1.276c1.878.814 3.189 1.916 4.079 3.265l5.008-3.305c-1.61-2.44-3.892-4.248-6.702-5.465l-2.385 5.505Zm4.091 3.282c.887 1.324 1.396 2.995 1.396 5.157h6c0-3.151-.759-6.031-2.412-8.497l-4.984 3.34Zm1.396 5.157c0 1.973-.485 3.645-1.409 5.103l5.069 3.211c1.575-2.487 2.34-5.288 2.34-8.314h-6Zm-1.409 5.103c-.941 1.486-2.26 2.684-4.041 3.59l2.721 5.348c2.672-1.36 4.83-3.267 6.389-5.727l-5.069-3.211Zm-4.041 3.59c-1.748.889-3.844 1.385-6.365 1.402l.041 6c3.299-.022 6.34-.678 9.045-2.054l-2.721-5.348Zm-6.344 1.402h-8.057v6h8.057v-6Zm-11.057 3v10.84h6v-10.84h-6Zm2.433 13.786 4.571.879 1.133-5.892-4.571-.879-1.133 5.892Zm2.137-2.067V339h6v-5.127h-6Zm3 2.127h-17.666v6h17.666v-6Zm12.581 1.911-7.178-18.428-5.591 2.178 7.178 18.428 5.591-2.178Zm-9.254-14.426 7.705-1.905-1.439-5.824-7.705 1.904 1.439 5.825Zm4.232-3.626 6.211 14.356 5.507-2.383-6.211-14.355-5.507 2.382Zm8.281 16.086 3.633.849 1.367-5.842-3.633-.85-1.367 5.843Zm1.316-2.072V339h6v-5.127h-6Zm3 2.127h-10.371v6h10.371v-6Zm-24.726-17.438h6.973v-6h-6.973v6Zm6.973 0c2.803 0 5.474-.577 7.457-2.272l-3.899-4.561c-.44.376-1.44.833-3.558.833v6Zm7.46-2.274c2.045-1.754 2.893-4.199 2.893-6.849h-6c0 1.336-.382 1.937-.798 2.293l3.905 4.556Zm2.893-6.849c0-2.635-.835-5.038-2.73-6.872l-4.173 4.311c.527.511.903 1.251.903 2.561h6Zm-2.712-6.855c-1.966-1.934-4.646-2.648-7.495-2.648v6c1.916 0 2.83.476 3.287.925l4.208-4.277Zm-7.495-2.648h-7.119v6h7.119v-6Zm-10.119 3v12.626h6v-12.626h-6Zm37.464 28.945-2.697 1.316.005.008 2.692-1.324Zm0-17.373 2.691 1.324.005-.008-2.696-1.316Zm5.127-5.713 1.569 2.556.007-.003-1.576-2.553Zm16.083 0-1.585 2.546.008.005.008.005 1.569-2.556Zm5.127 5.684-2.691 1.324 2.691-1.324Zm0 17.402 2.692 1.324.005-.008-2.697-1.316Zm-5.127 5.683-1.569-2.556 1.569 2.556Zm-4.365-5.712-1.948-2.282 1.948 2.282Zm2.08-3.34 2.862.901.003-.011-2.865-.89Zm0-10.606-2.865.891.004.011 2.861-.902Zm-2.109-3.369-1.976 2.258.025.022.026.021 1.925-2.301Zm-7.295 0 1.925 2.301.014-.012.013-.011-1.952-2.278Zm-2.109 3.369-2.865-.89-.004.012-.004.013 2.873.865Zm0 10.606-2.876.855.005.017.006.018 2.865-.89Zm2.109 3.369-1.925 2.301.014.011.014.012 1.897-2.324Zm3.691 4.734c-2.679 0-4.802-.582-6.496-1.613l-3.12 5.125c2.798 1.703 6.046 2.488 9.616 2.488v-6Zm-6.496-1.613c-1.746-1.062-3.078-2.521-4.025-4.445l-5.383 2.648c1.436 2.92 3.541 5.25 6.288 6.922l3.12-5.125Zm-4.02-4.437c-.961-1.969-1.484-4.309-1.484-7.092h-6c0 3.545.67 6.81 2.091 9.724l5.393-2.632Zm-1.484-7.092v-.616h-6v.616h6Zm0-.616c0-2.761.522-5.078 1.479-7.025l-5.383-2.648c-1.425 2.896-2.096 6.145-2.096 9.673h6Zm1.484-7.033c.952-1.951 2.279-3.416 4-4.473l-3.139-5.113c-2.732 1.678-4.823 4.022-6.254 6.954l5.393 2.632Zm4.007-4.476c1.694-1.046 3.803-1.633 6.451-1.633v-6c-3.563 0-6.806.8-9.603 2.527l3.152 5.106Zm6.451-1.633c2.696 0 4.807.59 6.471 1.626l3.171-5.093c-2.789-1.737-6.049-2.533-9.642-2.533v6Zm6.487 1.636c1.727 1.061 3.055 2.521 4.005 4.452l5.383-2.649c-1.433-2.912-3.523-5.242-6.249-6.916l-3.139 5.113Zm4.005 4.452c.956 1.944 1.479 4.271 1.479 7.054h6c0-3.544-.669-6.804-2.096-9.703l-5.383 2.649Zm1.479 7.054v.616h6v-.616h-6Zm0 .616c0 2.783-.523 5.123-1.484 7.092l5.393 2.632c1.421-2.914 2.091-6.179 2.091-9.724h-6Zm-1.479 7.084c-.95 1.931-2.278 3.39-4.005 4.451l3.139 5.113c2.726-1.674 4.816-4.003 6.249-6.916l-5.383-2.648Zm-4.005 4.451c-1.672 1.027-3.772 1.607-6.429 1.607v6c3.555 0 6.787-.786 9.568-2.494l-3.139-5.113Zm-6.429 1.045c2.047 0 3.996-.565 5.582-1.92l-3.897-4.563c-.289.247-.762.483-1.685.483v6Zm5.582-1.92c1.448-1.237 2.411-2.872 2.993-4.72l-5.723-1.803c-.316 1.004-.74 1.596-1.167 1.96l3.897 4.563Zm2.996-4.731c.559-1.798.809-3.789.809-5.929h-6c0 1.688-.199 3.056-.538 4.148l5.729 1.781Zm.809-5.929v-.616h-6v.616h6Zm0-.616c0-2.106-.251-4.072-.812-5.852l-5.723 1.803c.337 1.071.535 2.406.535 4.049h6Zm-.809-5.841c-.583-1.878-1.563-3.537-3.049-4.78l-3.85 4.602c.428.359.855.946 1.17 1.959l5.729-1.781Zm-2.999-4.737c-1.592-1.393-3.564-1.972-5.637-1.972v6c.935 0 1.404.241 1.686.488l3.951-4.516Zm-5.637-1.972c-2.058 0-3.998.592-5.585 1.952l3.904 4.556c.327-.28.809-.508 1.681-.508v-6Zm-5.558 1.929c-1.486 1.243-2.466 2.902-3.049 4.78l5.729 1.781c.315-1.013.742-1.6 1.17-1.959l-3.85-4.602Zm-3.057 4.805c-.533 1.768-.772 3.72-.772 5.816h6c0-1.654.191-3.002.517-4.085l-5.745-1.731Zm-.772 5.816v.616h6v-.616h-6Zm0 .616c0 2.129.238 4.108.769 5.894l5.751-1.71c-.328-1.105-.52-2.486-.52-4.184h-6Zm.78 5.929c.583 1.878 1.563 3.537 3.049 4.78l3.85-4.602c-.428-.359-.855-.946-1.17-1.959l-5.729 1.781Zm3.077 4.803c1.602 1.307 3.549 1.848 5.588 1.848v-6c-.968 0-1.482-.241-1.794-.496l-3.794 4.648Zm30.794-2.324-2.696 1.316.004.008 2.692-1.324Zm0-17.373 2.692 1.324.004-.008-2.696-1.316Zm5.127-5.713 1.57 2.556.006-.003-1.576-2.553Zm16.084 0-1.586 2.546.008.005.008.005 1.57-2.556Zm5.127 5.684-2.692 1.324 2.692-1.324Zm0 17.402 2.692 1.324.004-.008-2.696-1.316Zm-5.127 5.683-1.57-2.556 1.57 2.556Zm-4.365-5.712-1.948-2.282 1.948 2.282Zm2.08-3.34 2.861.901.004-.011-2.865-.89Zm0-10.606-2.865.891.004.011 2.861-.902Zm-2.109-3.369-1.976 2.258.025.022.026.021 1.925-2.301Zm-7.295 0 1.925 2.301.014-.012.013-.011-1.952-2.278Zm-2.11 3.369-2.864-.89-.004.012-.004.013 2.872.865Zm0 10.606-2.875.855.005.017.006.018 2.864-.89Zm2.11 3.369-1.925 2.301.014.011.014.012 1.897-2.324Zm3.691 4.734c-2.679 0-4.803-.582-6.497-1.613l-3.119 5.125c2.798 1.703 6.046 2.488 9.616 2.488v-6Zm-6.497-1.613c-1.745-1.062-3.077-2.521-4.024-4.445l-5.384 2.648c1.437 2.92 3.542 5.25 6.289 6.922l3.119-5.125Zm-4.02-4.437c-.961-1.969-1.483-4.309-1.483-7.092h-6c0 3.545.669 6.81 2.091 9.724l5.392-2.632Zm-1.483-7.092v-.616h-6v.616h6Zm0-.616c0-2.761.521-5.078 1.479-7.025l-5.384-2.648c-1.425 2.896-2.095 6.145-2.095 9.673h6Zm1.483-7.033c.952-1.951 2.28-3.416 4.001-4.473l-3.14-5.113c-2.732 1.678-4.822 4.022-6.253 6.954l5.392 2.632Zm4.007-4.476c1.695-1.046 3.803-1.633 6.452-1.633v-6c-3.563 0-6.806.8-9.604 2.527l3.152 5.106Zm6.452-1.633c2.696 0 4.807.59 6.47 1.626l3.172-5.093c-2.789-1.737-6.05-2.533-9.642-2.533v6Zm6.486 1.636c1.728 1.061 3.055 2.521 4.005 4.452l5.384-2.649c-1.433-2.912-3.523-5.242-6.249-6.916l-3.14 5.113Zm4.005 4.452c.957 1.944 1.479 4.271 1.479 7.054h6c0-3.544-.669-6.804-2.095-9.703l-5.384 2.649Zm1.479 7.054v.616h6v-.616h-6Zm0 .616c0 2.783-.522 5.123-1.483 7.092l5.392 2.632c1.422-2.914 2.091-6.179 2.091-9.724h-6Zm-1.479 7.084c-.95 1.931-2.277 3.39-4.005 4.451l3.14 5.113c2.726-1.674 4.816-4.003 6.249-6.916l-5.384-2.648Zm-4.005 4.451c-1.671 1.027-3.771 1.607-6.428 1.607v6c3.554 0 6.787-.786 9.568-2.494l-3.14-5.113Zm-6.428 1.045c2.047 0 3.995-.565 5.581-1.92l-3.896-4.563c-.289.247-.763.483-1.685.483v6Zm5.581-1.92c1.448-1.237 2.411-2.872 2.993-4.72l-5.722-1.803c-.317 1.004-.74 1.596-1.167 1.96l3.896 4.563Zm2.997-4.731c.559-1.798.809-3.789.809-5.929h-6c0 1.688-.199 3.056-.539 4.148l5.73 1.781Zm.809-5.929v-.616h-6v.616h6Zm0-.616c0-2.106-.252-4.072-.813-5.852l-5.722 1.803c.337 1.071.535 2.406.535 4.049h6Zm-.809-5.841c-.584-1.878-1.564-3.537-3.049-4.78l-3.85 4.602c.428.359.854.946 1.169 1.959l5.73-1.781Zm-2.999-4.737c-1.592-1.393-3.565-1.972-5.637-1.972v6c.935 0 1.404.241 1.686.488l3.951-4.516Zm-5.637-1.972c-2.059 0-3.998.592-5.586 1.952l3.905 4.556c.327-.28.809-.508 1.681-.508v-6Zm-5.558 1.929c-1.486 1.243-2.466 2.902-3.049 4.78l5.729 1.781c.315-1.013.741-1.6 1.17-1.959l-3.85-4.602Zm-3.057 4.805c-.533 1.768-.772 3.72-.772 5.816h6c0-1.654.19-3.002.517-4.085l-5.745-1.731Zm-.772 5.816v.616h6v-.616h-6Zm0 .616c0 2.129.238 4.108.769 5.894l5.751-1.71c-.328-1.105-.52-2.486-.52-4.184h-6Zm.78 5.929c.583 1.878 1.563 3.537 3.049 4.78l3.85-4.602c-.429-.359-.855-.946-1.17-1.959l-5.729 1.781Zm3.077 4.803c1.601 1.307 3.548 1.848 5.588 1.848v-6c-.968 0-1.482-.241-1.794-.496l-3.794 4.648Zm33.929 2.979-2.147 2.095.006.006.007.007 2.134-2.108Zm-2.373-23.877h3v-3h-3v3Zm-4.365 0h-3v3h3v-3Zm0-6.006v-3h-3v3h3Zm4.365 0v3h3v-3h-3Zm0-7.764v-3h-3v3h3Zm8.525 0h3v-3h-3v3Zm0 7.764h-3v3h3v-3Zm5.83 0h3v-3h-3v3Zm0 6.006v3h3v-3h-3Zm-5.83 0v-3h-3v3h3Zm.762 18.779-2.161 2.081.02.02.02.02 2.121-2.121Zm3.662.703.331 2.982.047-.005.046-.007-.424-2.97Zm1.406-.234 2.979-.353-.382-3.226-3.185.637.588 2.942Zm.733 6.181.832 2.882 2.446-.706-.299-2.529-2.979.353Zm-2.871.616-.448-2.967-.032.005-.032.006.512 2.956Zm-3.018-2.737c-2.394 0-3.807-.644-4.692-1.54l-4.268 4.217c2.317 2.346 5.456 3.323 8.96 3.323v-6Zm-4.679-1.527c-.799-.819-1.52-2.457-1.52-5.609h-6c0 3.878.861 7.377 3.226 9.8l4.294-4.191Zm-1.52-5.609v-16.172h-6v16.172h6Zm-3-19.172h-4.365v6h4.365v-6Zm-1.365 3v-6.006h-6v6.006h6Zm-3-3.006h4.365v-6h-4.365v6Zm7.365-3v-7.764h-6v7.764h6Zm-3-4.764h8.525v-6h-8.525v6Zm5.525-3v7.764h6v-7.764h-6Zm3 10.764h5.83v-6h-5.83v6Zm2.83-3v6.006h6v-6.006h-6Zm3 3.006h-5.83v6h5.83v-6Zm-8.83 3v16.142h6v-16.142h-6Zm0 16.142c0 1.512.289 3.355 1.601 4.718l4.322-4.162c.158.165.174.279.15.194-.027-.094-.073-.326-.073-.75h-6Zm1.641 4.758c1.202 1.202 2.74 1.67 4.26 1.67v-6c-.158 0-.199-.023-.168-.012a.442.442 0 0 1 .15.1l-4.242 4.242Zm4.26 1.67c.608 0 1.226-.037 1.854-.106l-.662-5.964c-.427.048-.824.07-1.192.07v6Zm1.947-.118a28.26 28.26 0 0 0 1.571-.263l-1.177-5.883c-.32.064-.731.133-1.242.206l.848 5.94Zm-1.997-2.851.732 6.181 5.959-.706-.733-6.181-5.958.706Zm2.879 2.946c-.736.213-1.563.392-2.486.531l.895 5.933a25.212 25.212 0 0 0 3.256-.7l-1.665-5.764Zm-2.55.542c-.853.147-1.687.219-2.506.219v6c1.173 0 2.35-.103 3.529-.307l-1.023-5.912Z" mask="url(#a)"/>
</svg>
